Coordinates
version=1
nRows=14
nColumns=36
inDegrees=yes

Units are S.I. units (second, meters, Newtons, ...)
If the header above contains a line with 'inDegrees', this indicates whether rotational values are in degrees (yes) or radians (no).

endheader
time	pelvis_tilt	pelvis_list	pelvis_rotation	pelvis_tx	pelvis_ty	pelvis_tz	hip_flexion_r	hip_adduction_r	hip_rotation_r	knee_angle_r	knee_angle_r_beta	ankle_angle_r	subtalar_angle_r	mtp_angle_r	hip_flexion_l	hip_adduction_l	hip_rotation_l	knee_angle_l	knee_angle_l_beta	ankle_angle_l	subtalar_angle_l	mtp_angle_l	lumbar_extension	lumbar_bending	lumbar_rotation	arm_flex_r	arm_add_r	arm_rot_r	elbow_flex_r	pro_sup_r	arm_flex_l	arm_add_l	arm_rot_l	elbow_flex_l	pro_sup_l
      4.15000000	    -34.00418756	     -4.87236519	      5.24591408	      1.00387141	      0.75254384	     -0.29169083	     84.62153045	    -13.09991709	     -6.65944844	     73.44402984	      1.28184014	     24.53287381	    -15.02361379	     -7.49999987	     85.59583631	     -8.19672185	      3.28546389	     74.72132527	      1.30413315	     26.94209977	    -17.08477153	     -7.49999987	    -17.45698095	      4.90480113	      0.45454380	     84.01113469	    -36.65445594	     11.27373373	    110.94684452	     75.85210146	     81.15652086	    -34.03350258	     19.38878307	    109.81403757	     87.43430225
      4.16666670	    -32.19900075	     -4.65865294	      5.06929332	      1.00881923	      0.77222325	     -0.28875587	     80.56549681	    -12.50814515	     -6.99794101	     70.60240255	      1.23224438	     24.14596006	    -15.04002331	     -7.49999987	     81.60099678	     -8.54295984	      3.05076144	     72.25562742	      1.26109860	     26.59777766	    -17.31587443	     -7.49999987	    -17.31365452	      4.75135462	     -0.91431352	     84.27352084	    -33.93312293	     13.05431237	    110.18441311	     80.89017167	     78.98296692	    -37.51724179	     17.88380081	    110.76688803	     85.03404042
      4.18333330	    -29.91533872	     -4.47851185	      4.81814867	      1.01686753	      0.79965927	     -0.28368699	     75.42049180	    -11.63418443	     -7.44591158	     66.84354868	      1.16664001	     23.24254087	    -15.56274953	     -7.49999987	     76.56271447	     -9.11033243	      2.70779618	     68.95407642	      1.20347567	     25.77895409	    -17.60487872	     -7.49999987	    -17.98098217	      4.19138942	     -1.05933918	     81.60420366	    -33.43922634	     12.70687924	    111.64102090	     80.44174501	     77.16341024	    -38.91482074	     17.53032372	    110.16714213	     83.69590876
      4.20000000	    -26.99336902	     -4.11109150	      4.64061891	      1.02286560	      0.81386126	     -0.28642591	     69.68036135	    -10.93097997	     -7.82130937	     63.11809843	      1.10161864	     22.59789580	    -15.57758351	     -7.49999987	     70.72680770	     -9.65211757	      1.96267969	     65.49401430	      1.14308619	     25.01389834	    -17.53676258	     -7.49999987	    -19.26391639	      3.58237842	     -1.47418814	     80.49431999	    -32.36110639	     11.06424688	    111.88060747	     87.21926677	     76.21077879	    -39.63811434	     17.13107582	    110.15276020	     85.54834264
      4.21666670	    -25.28237537	     -3.74437238	      4.30417862	      1.02393594	      0.82200692	     -0.28540190	     65.92269989	    -10.20084877	     -7.73392473	     60.18847290	      1.05048702	     21.88168102	    -15.68053021	     -7.49999987	     66.71700654	    -10.18976875	      1.09602868	     62.69098497	      1.09416410	     24.35329670	    -17.59211828	     -7.49999987	    -18.18372567	      3.02126162	     -1.47816125	     79.38439588	    -32.32893009	     10.91177371	    111.44959502	     87.43336192	     75.04321314	    -39.68947659	     16.67755964	    109.52470676	     85.56979833
      4.23333330	    -20.80924296	     -2.84989151	      4.14272542	      1.03037903	      0.84536804	     -0.28789034	     58.87886682	     -9.94280147	     -7.80564756	     56.70350363	      0.98966284	     21.25589011	    -15.32888083	     -7.49999987	     59.15493253	    -10.32243094	     -0.19285455	     58.99350606	      1.02963092	     23.46302003	    -17.55546407	     -7.49999987	    -21.45357269	      2.32908040	     -1.65322113	     79.53003826	    -32.31112271	     10.42376029	    111.16089982	     92.05321586	     73.93890612	    -40.59157039	     15.17042272	    110.20548507	     87.02453458
      4.25000000	    -16.28056355	     -1.91307678	      3.75124682	      1.04489644	      0.87279231	     -0.28674128	     51.19029426	     -9.71646991	     -8.03041130	     52.42319711	      0.91495739	     20.72538212	    -14.73175686	     -7.49999987	     50.79212591	    -10.29812435	     -1.67695906	     54.29297306	      0.94759114	     22.19453263	    -17.58480719	     -7.49999987	    -24.36186586	      1.50861629	     -1.37922717	     77.35049088	    -32.04077038	      9.70678553	    110.84222123	     90.52896070	     70.39149330	    -40.60611837	     13.48780266	    109.94582455	     86.16267078
      4.26666670	    -11.06269744	     -0.95404248	      3.19888710	      1.05236980	      0.89700488	     -0.28790299	     42.50268726	     -9.51414272	     -8.25842246	     47.66505815	      0.83191220	     19.65193479	    -14.22958263	     -7.49999987	     41.25059243	    -10.20191694	     -3.65157625	     48.80081055	      0.85173482	     20.47981172	    -17.41229280	     -7.49999987	    -27.88941102	      0.62878831	     -0.99103967	     75.51520604	    -32.56974393	      9.65023193	    109.58221682	     91.23012669	     67.53181147	    -40.60651856	     12.05962793	    109.24971615	     87.07822855
      4.28333330	     -6.28637563	     -0.11409960	      2.45928744	      1.06049753	      0.91157004	     -0.28939759	     34.57207681	     -9.42445215	     -8.51558755	     43.26515105	      0.75511934	     18.88519805	    -13.15095941	     -7.49999987	     32.34230723	     -9.95966865	     -5.70929076	     43.45323698	      0.75840206	     19.30444729	    -16.56477667	     -7.49999987	    -30.46462574	     -0.14956034	     -0.49364535	     73.66534029	    -33.78350152	      8.69677175	    110.16295955	     91.49789369	     64.91564995	    -40.69553804	     10.16917665	    109.57221903	     88.12813535
      4.30000000	     -1.92761800	      0.53298075	      1.59837781	      1.07319100	      0.92986821	     -0.28767496	     27.13428251	     -9.34825456	     -8.84561888	     38.92366886	      0.67934618	     17.95310280	    -12.18745443	     -7.49999987	     23.84255566	     -9.63501460	     -7.96427371	     37.92941014	      0.66199309	     18.01140617	    -15.44274520	     -7.49999987	    -32.38886296	     -0.96480427	     -0.15948798	     70.92208600	    -34.51758807	      7.60581062	    110.42111329	     91.55495397	     60.98886816	    -41.44815682	      8.42449892	    109.81421010	     88.79291956
      4.31666670	      0.84859959	      0.86912671	      0.92949050	      1.07562515	      0.94389536	     -0.29247904	     21.82519479	     -9.37699010	     -9.47742326	     35.33935706	      0.61678814	     17.15631122	    -10.94721880	     -7.49999987	     17.65908841	     -9.24866535	     -9.89690202	     33.14918810	      0.57856248	     17.07008381	    -14.05669809	     -7.49999987	    -32.73534358	     -1.31418925	      0.04422960	     68.85973083	    -34.78823107	      7.16061830	    109.68144119	     91.51657377	     58.20664215	    -41.74110478	      7.67070307	    109.36447592	     89.25597939
      4.33333330	      2.81842378	      0.95199237	      0.34603538	      1.08303275	      0.96395273	     -0.28880714	     17.29046703	     -9.25707571	    -10.55716638	     31.54051737	      0.55048588	     16.16593349	     -9.51244765	     -7.49999987	     12.51597224	     -8.82535178	    -11.30294516	     28.39427873	      0.49557365	     15.73028926	    -13.01334485	     -7.49999987	    -32.36733563	     -1.63320354	      0.25880790	     65.47063695	    -34.52200026	      6.08713103	    110.36136966	     90.20842652	     54.51600038	    -41.88564112	      5.97819509	    109.58375606	     88.52790452
      4.35000000	      4.40274802	      0.84492964	     -0.12845297	      1.08586984	      0.97386560	     -0.28775323	     13.28224012	     -8.86567394	    -11.55173275	     27.79750696	      0.48515802	     14.87551808	     -8.36274845	     -7.49999987	      7.96628744	     -8.57779185	    -12.96052022	     23.73896061	      0.41432302	     14.33406935	    -11.52372577	     -7.49999987	    -31.37040684	     -1.65823781	      0.59201489	     62.08708533	    -34.72764081	      5.61406330	    110.53769235	     90.25647168	     50.48158104	    -42.12467951	      4.61746671	    109.67321703	     88.96186406
      4.36666670	      5.55994166	      0.67873800	     -0.53888352	      1.09183758	      0.97796877	     -0.29072181	     10.23634530	     -8.51537460	    -12.51774948	     24.81288461	      0.43306653	     13.81312641	     -7.07942268	     -7.49999987	      4.40935843	     -8.24800963	    -13.94212083	     19.83890194	      0.34625416	     13.22594094	    -10.48560776	     -7.49999987	    -30.07919277	     -1.41722527	      0.82301949	     58.86041324	    -35.63277424	      4.91925424	    111.29211138	     90.82352187	     47.16243621	    -42.13058066	      3.37803120	    110.50706098	     89.86130157
